<?xml version="1.0" encoding="UTF-8"?>
<svg id="Layer_2" data-name="Layer 2" xmlns="http://www.w3.org/2000/svg" viewBox="0 0 28.94 29.08">
  <defs>
    <style>
      .cls-1 {
        stroke-linecap: round;
      }

      .cls-1, .cls-2, .cls-3 {
        stroke-linejoin: round;
      }

      .cls-1, .cls-2, .cls-3, .cls-4 {
        fill: none;
        stroke: #6685ff;
      }

      .cls-3 {
        stroke-width: .75px;
      }

      .cls-5 {
        fill: #6685ff;
        opacity: .5;
      }

      .cls-4 {
        stroke-miterlimit: 10;
        stroke-width: .5px;
      }
    </style>
  </defs>
  <g id="Layer_2-2" data-name="Layer 2">
    <path class="cls-5" d="m28.91,25.75c0,.73-.27,1.45-.82,2-1.1,1.1-2.89,1.1-3.99,0l-3.62-3.62c-1.96,1.21-4.26,1.91-6.73,1.91C6.7,26.04.98,20.32.98,13.27S6.7.5,13.75.5s12.77,5.71,12.77,12.77c0,2.27-.59,4.41-1.64,6.26l-.38.64,3.59,3.59c.55.55.82,1.27.82,1.99Z"/>
    <g>
      <circle class="cls-1" cx="13.27" cy="13.27" r="10.3"/>
      <path class="cls-1" d="m21.79,22.79c-2.26,2.02-5.25,3.26-8.52,3.26C6.22,26.05.5,20.33.5,13.27S6.22.5,13.27.5s12.77,5.72,12.77,12.77c0,2.54-.74,4.91-2.02,6.9"/>
    </g>
    <polygon class="cls-3" points="19.67 12.8 17.69 12.8 17.69 19.07 8.86 19.07 8.86 12.8 6.88 12.8 13.27 6.72 19.67 12.8"/>
    <polyline class="cls-4" points="14.34 19.03 14.34 15.97 12.21 15.97 12.21 19.07"/>
    <path class="cls-2" d="m19.94,24.08l3.68,3.68c1.1,1.1,2.89,1.1,3.99,0h0c1.1-1.1,1.1-2.89,0-3.99l-3.59-3.59.39-.66"/>
  </g>
</svg>