<?xml version="1.0" encoding="UTF-8"?>
<svg id="Layer_2" data-name="Layer 2" xmlns="http://www.w3.org/2000/svg" viewBox="0 0 28.87 25.79">
  <defs>
    <style>
      .cls-1 {
        opacity: .47;
      }

      .cls-1, .cls-2, .cls-3 {
        fill: none;
      }

      .cls-4, .cls-5 {
        fill: #6685ff;
      }

      .cls-2 {
        stroke-linecap: round;
      }

      .cls-2, .cls-3 {
        stroke: #6685ff;
        stroke-miterlimit: 10;
      }

      .cls-5 {
        opacity: .5;
      }
    </style>
  </defs>
  <g id="Layer_2-2" data-name="Layer 2">
    <g>
      <g class="cls-1">
        <rect class="cls-5" x=".5" y="3.48" width="27.87" height="9.87" rx=".43" ry=".43"/>
        <rect class="cls-5" x="12.77" y="13.35" width="3.33" height="12.17"/>
        <path class="cls-5" d="m13.65.73h1.58c.48,0,.88.39.88.88v1.87h-3.33v-1.87c0-.48.39-.88.88-.88Z"/>
      </g>
      <g>
        <g>
          <rect class="cls-3" x=".5" y="3.25" width="27.87" height="9.87" rx=".43" ry=".43"/>
          <rect class="cls-3" x="12.77" y="13.12" width="3.33" height="12.17"/>
          <path class="cls-3" d="m13.65.5h1.58c.48,0,.88.39.88.88v1.87h-3.33v-1.87c0-.48.39-.88.88-.88Z"/>
        </g>
        <line class="cls-2" x1="10.15" y1="25.29" x2="18.73" y2="25.29"/>
      </g>
      <g>
        <path class="cls-4" d="m4.5,6.92h-1.4v1.09h1.17c.11,0,.19.03.24.09.05.06.08.14.08.24s-.03.18-.08.24c-.05.06-.13.09-.24.09h-1.17v1.4c0,.18-.03.31-.1.4-.07.09-.15.13-.26.13s-.19-.04-.26-.13-.1-.22-.1-.4v-3.28c0-.12.02-.23.05-.3s.08-.14.14-.17.15-.05.25-.05h1.68c.11,0,.2.03.25.09.06.06.08.14.08.24s-.03.18-.08.24c-.05.06-.14.09-.25.09Z"/>
        <path class="cls-4" d="m6.91,6.18c.36,0,.68.09.94.27.26.18.46.43.59.76.13.33.2.72.2,1.16,0,.33-.04.63-.11.9-.07.27-.18.5-.33.7-.15.2-.33.35-.54.45-.21.1-.46.16-.74.16s-.52-.05-.74-.16c-.22-.11-.4-.26-.54-.46-.15-.2-.26-.43-.33-.71-.07-.28-.11-.57-.11-.89s.04-.63.12-.9c.08-.27.19-.51.34-.7.15-.19.33-.34.54-.44.21-.1.45-.15.72-.15Zm1.01,2.19c0-.31-.04-.58-.12-.81s-.2-.4-.36-.52-.33-.18-.53-.18c-.14,0-.27.03-.39.1-.12.06-.22.16-.31.28-.09.12-.16.28-.21.47-.05.19-.08.41-.08.65s.03.46.08.66c.05.2.12.36.21.49.09.13.2.23.32.29s.25.1.39.1c.18,0,.35-.06.5-.17.15-.11.27-.28.36-.51.09-.23.14-.51.14-.85Z"/>
        <path class="cls-4" d="m10.21,8.69h-.25v1.37c0,.18-.03.31-.1.4-.07.08-.15.13-.26.13-.11,0-.2-.04-.26-.13s-.09-.22-.09-.39v-3.28c0-.19.03-.32.1-.4.07-.08.18-.12.33-.12h1.16c.16,0,.3,0,.41.02.11.02.22.05.31.1.11.06.21.14.29.24.08.1.15.23.19.36.04.14.07.29.07.44,0,.32-.07.57-.22.76-.15.19-.37.32-.67.4.13.08.25.2.36.36s.22.33.31.51c.09.18.16.34.21.49.05.14.08.24.08.3s-.01.11-.04.17c-.03.06-.07.1-.12.13-.05.03-.11.05-.18.05-.08,0-.15-.02-.2-.07-.05-.05-.1-.1-.14-.17s-.09-.17-.16-.31l-.29-.58c-.1-.21-.19-.37-.27-.48-.08-.11-.16-.19-.25-.23-.08-.04-.19-.06-.31-.06Zm.41-1.79h-.66v1.17h.64c.17,0,.32-.02.43-.05.12-.04.21-.1.27-.18.06-.09.09-.2.09-.36,0-.12-.03-.22-.07-.31-.05-.09-.12-.16-.21-.2-.08-.04-.25-.06-.49-.06Z"/>
        <path class="cls-4" d="m16.68,9.23c0,.26-.05.49-.16.69-.11.21-.27.37-.48.48s-.46.17-.75.17c-.35,0-.63-.08-.86-.24-.16-.11-.29-.27-.39-.46s-.15-.38-.15-.56c0-.1.03-.19.09-.27.06-.07.14-.11.23-.11.08,0,.14.03.19.09.05.06.1.14.13.26.04.14.09.25.14.34.05.09.12.17.22.23s.22.09.37.09c.21,0,.38-.06.51-.18s.2-.27.2-.45c0-.14-.04-.26-.11-.34-.07-.09-.16-.16-.28-.2-.11-.05-.26-.1-.45-.15-.25-.07-.46-.16-.63-.25s-.31-.23-.41-.39-.15-.37-.15-.62.05-.44.16-.62c.11-.18.26-.32.46-.42.2-.1.44-.15.71-.15.22,0,.4.03.56.1.16.06.29.15.39.26.1.11.18.22.23.34.05.12.07.23.07.35,0,.1-.03.2-.09.28-.06.08-.13.12-.22.12-.08,0-.14-.02-.19-.07-.04-.05-.09-.13-.14-.24-.06-.16-.14-.29-.23-.38-.09-.09-.23-.14-.43-.14-.18,0-.33.05-.44.15-.11.1-.17.22-.17.35,0,.08.02.16.06.22.04.06.09.12.16.16.07.04.13.08.2.1.07.03.18.06.34.11.2.06.38.12.54.19.16.07.3.15.41.25.11.1.2.22.26.37.06.15.09.33.09.54Z"/>
        <path class="cls-4" d="m19.54,10.03l-.17-.53h-1.43l-.17.55c-.07.21-.12.36-.17.43-.05.07-.12.11-.23.11-.09,0-.17-.04-.24-.12-.07-.08-.1-.17-.1-.27,0-.06,0-.12.02-.18.02-.06.04-.15.08-.26l.9-2.77c.03-.08.06-.17.09-.29s.07-.2.12-.28.09-.13.16-.18.15-.07.25-.07.18.02.25.07.12.1.16.18.08.15.1.23c.03.08.06.19.11.33l.92,2.75c.07.21.11.36.11.46s-.03.19-.1.27c-.07.08-.15.12-.25.12-.06,0-.1-.01-.14-.04-.04-.02-.07-.06-.1-.1s-.06-.11-.09-.19c-.03-.09-.06-.16-.08-.23Zm-1.41-1.18h1.05l-.53-1.76-.52,1.76Z"/>
        <path class="cls-4" d="m21.52,6.7v3.1h1.44c.12,0,.2.03.26.1.06.07.09.15.09.26s-.03.19-.09.25-.15.1-.27.1h-1.72c-.16,0-.27-.04-.33-.12-.07-.08-.1-.22-.1-.4v-3.28c0-.17.03-.31.1-.39.06-.09.15-.13.25-.13s.19.04.26.13c.07.09.1.22.1.39Z"/>
        <path class="cls-4" d="m26.1,6.92h-1.6v1.05h1.48c.11,0,.19.03.24.09s.08.14.08.23-.03.18-.08.24c-.05.06-.13.09-.24.09h-1.48v1.21h1.66c.11,0,.2.03.25.09.06.06.08.15.08.25s-.03.18-.08.25c-.06.06-.14.09-.25.09h-1.93c-.16,0-.27-.04-.33-.12-.07-.08-.1-.22-.1-.4v-3.2c0-.12.01-.23.05-.3.03-.08.08-.14.14-.17.06-.04.15-.05.25-.05h1.88c.11,0,.2.03.25.09.06.06.08.14.08.24s-.03.18-.08.24c-.05.06-.14.09-.25.09Z"/>
      </g>
    </g>
  </g>
</svg>